<svg xmlns="http://www.w3.org/2000/svg" viewBox="0 0 760 420">
<rect width="760" height="420" rx="36" fill="#fff8ec"/>
<rect x="52" y="45" width="656" height="330" rx="28" fill="#fff" stroke="#e8ddce"/>
<text x="86" y="94" font-family="Inter,Arial" font-weight="800" font-size="27" fill="#063f3f">Project Analytics Dashboard</text>
<rect x="86" y="124" width="130" height="82" rx="18" fill="#edf7f5"/><text x="112" y="160" font-family="Inter" font-weight="800" font-size="24" fill="#063f3f">15%</text><text x="112" y="184" font-family="Inter" font-size="14" fill="#667085">faster reporting</text>
<rect x="236" y="124" width="130" height="82" rx="18" fill="#fff4dc"/><text x="262" y="160" font-family="Inter" font-weight="800" font-size="24" fill="#a77325">40%</text><text x="262" y="184" font-family="Inter" font-size="14" fill="#667085">CMS speed gain</text>
<rect x="386" y="124" width="130" height="82" rx="18" fill="#f1f7ff"/><text x="414" y="160" font-family="Inter" font-weight="800" font-size="24" fill="#246b9b">30%</text><text x="414" y="184" font-family="Inter" font-size="14" fill="#667085">less defects</text>
<circle cx="608" cy="167" r="46" fill="none" stroke="#e9eff0" stroke-width="17"/>
<path d="M608 121a46 46 0 0 1 41 67" fill="none" stroke="#d9a441" stroke-width="17" stroke-linecap="round"/>
<path d="M608 121a46 46 0 0 0-41 67" fill="none" stroke="#0b6a69" stroke-width="17" stroke-linecap="round"/>
<path d="M94 310c49-65 91-68 137-40 41 26 74 26 113-12 41-39 80-53 131-12 41 33 81 25 133-32" fill="none" stroke="#0b6a69" stroke-width="10" stroke-linecap="round"/>
<path d="M94 335h540" stroke="#e3ecea" stroke-width="5"/>
</svg>