<svg xmlns="http://www.w3.org/2000/svg" viewBox="0 0 760 420">
<defs><linearGradient id="bg" x1="0" x2="1" y1="0" y2="1"><stop stop-color="#063f3f"/><stop offset="1" stop-color="#091b1d"/></linearGradient><filter id="s"><feDropShadow dx="0" dy="14" stdDeviation="13" flood-opacity=".2"/></filter></defs>
<rect width="760" height="420" rx="36" fill="#f8f1e6"/>
<g filter="url(#s)">
<rect x="42" y="44" width="320" height="245" rx="24" fill="url(#bg)"/>
<text x="74" y="92" font-family="Inter,Arial" font-size="30" font-weight="800" fill="#fff">Impact IQ</text>
<text x="74" y="126" font-family="Inter,Arial" font-size="14" fill="#f0c56d">AGILE SIMULATION GAME</text>
<rect x="74" y="154" width="235" height="18" rx="9" fill="#ffffff" opacity=".13"/>
<rect x="74" y="190" width="78" height="58" rx="14" fill="#143f42"/>
<rect x="170" y="190" width="78" height="58" rx="14" fill="#143f42"/>
<rect x="266" y="190" width="58" height="58" rx="14" fill="#143f42"/>
<path d="M230 117a52 52 0 1 1 87 53" fill="none" stroke="#d9a441" stroke-width="12" stroke-linecap="round"/>
<circle cx="278" cy="151" r="32" fill="#ef6c4f"/>
</g>
<g filter="url(#s)">
<rect x="400" y="48" width="302" height="218" rx="24" fill="#fff"/>
<text x="432" y="88" font-family="Inter,Arial" font-size="22" font-weight="800" fill="#063f3f">CRM Visibility</text>
<rect x="432" y="115" width="75" height="52" rx="13" fill="#eef7f5"/>
<rect x="520" y="115" width="75" height="52" rx="13" fill="#fff5df"/>
<rect x="608" y="115" width="55" height="52" rx="13" fill="#f3f0ff"/>
<path d="M434 219c42-46 74-42 105-23 40 24 76 11 114-31" fill="none" stroke="#0b6a69" stroke-width="8" stroke-linecap="round"/>
<path d="M434 240h225" stroke="#d6e2e0" stroke-width="4"/>
</g>
<g filter="url(#s)">
<rect x="230" y="278" width="392" height="98" rx="22" fill="#fff"/>
<text x="260" y="320" font-family="Inter,Arial" font-size="20" font-weight="800" fill="#063f3f">Requirements -> Build -> UAT -> Release</text>
<circle cx="282" cy="350" r="12" fill="#063f3f"/><circle cx="406" cy="350" r="12" fill="#d9a441"/><circle cx="530" cy="350" r="12" fill="#063f3f"/>
<path d="M294 350h100M418 350h100" stroke="#d5c9b8" stroke-width="5" stroke-linecap="round"/>
</g>
</svg>