<svg xmlns="http://www.w3.org/2000/svg" viewBox="0 0 760 420">
<rect width="760" height="420" rx="36" fill="#fbf5ea"/>
<g font-family="Inter,Arial">
<rect x="65" y="75" width="270" height="180" rx="24" fill="#063f3f"/>
<rect x="87" y="98" width="226" height="124" rx="12" fill="#fff"/>
<rect x="112" y="270" width="175" height="20" rx="10" fill="#263739"/>
<rect x="356" y="55" width="300" height="235" rx="28" fill="#fff" stroke="#e6ded2"/>
<text x="388" y="99" font-size="26" font-weight="800" fill="#063f3f">CMS + Mobile</text>
<rect x="388" y="125" width="108" height="32" rx="10" fill="#fff0d9"/><rect x="388" y="170" width="218" height="18" rx="9" fill="#e9f3f2"/><rect x="388" y="202" width="182" height="18" rx="9" fill="#e9f3f2"/>
<rect x="595" y="165" width="92" height="165" rx="22" fill="#0b4b4b"/>
<rect x="607" y="186" width="68" height="117" rx="10" fill="#fff"/>
<circle cx="641" cy="316" r="6" fill="#fff"/>
<text x="93" y="135" font-size="18" font-weight="800" fill="#063f3f">Admin Panel</text>
<rect x="96" y="158" width="190" height="16" rx="8" fill="#e9f3f2"/>
<rect x="96" y="188" width="150" height="16" rx="8" fill="#ffe9b3"/>
<rect x="96" y="216" width="176" height="16" rx="8" fill="#e9f3f2"/>
<rect x="93" y="330" width="565" height="44" rx="18" fill="#fff" stroke="#e6ded2"/>
<text x="122" y="359" font-size="18" font-weight="800" fill="#063f3f">Workflow automation · content operations · mobile management · order accuracy</text>
</g>
</svg>